<?xml version="1.0" standalone="no"?>
<!DOCTYPE svg PUBLIC "-//W3C//DTD SVG 20010904//EN"
 "http://www.w3.org/TR/2001/REC-SVG-20010904/DTD/svg10.dtd">
<svg version="1.0" xmlns="http://www.w3.org/2000/svg"
 width="1024.000000pt" height="1024.000000pt" viewBox="0 0 1024.000000 1024.000000"
 preserveAspectRatio="xMidYMid meet">
<metadata>
Created by potrace 1.11, written by Peter Selinger 2001-2013
</metadata>
<g transform="translate(0.000000,1024.000000) scale(0.100000,-0.100000)"
fill="#000000" stroke="none">
<path d="M0 5120 l0 -5120 5120 0 5120 0 0 5120 0 5120 -5120 0 -5120 0 0
-5120z m9880 0 l0 -4760 -4760 0 -4760 0 0 4760 0 4760 4760 0 4760 0 0 -4760z"/>
<path d="M8675 9663 c-154 -32 -296 -114 -412 -237 -297 -312 -297 -790 0
-1102 170 -180 378 -263 621 -251 131 7 202 24 313 78 202 97 354 275 425 499
20 65 23 96 23 225 0 167 -15 236 -80 366 -162 320 -536 498 -890 422z m303
-139 c424 -86 654 -552 463 -939 -68 -138 -169 -239 -306 -305 -408 -198 -883
59 -945 510 -61 447 344 825 788 734z"/>
<path d="M8540 8881 l0 -461 85 0 85 0 0 190 0 190 59 0 58 0 115 -187 114
-188 88 -3 c69 -2 87 0 83 10 -3 7 -55 94 -116 193 l-112 180 50 17 c114 38
164 111 165 238 0 41 -5 92 -13 114 -19 55 -72 110 -134 137 -49 22 -65 24
-289 27 l-238 4 0 -461z m450 293 c50 -29 70 -88 50 -146 -24 -67 -59 -81
-207 -86 l-123 -4 0 132 0 132 123 -4 c100 -3 129 -8 157 -24z"/>
<path d="M3175 6813 c-505 -40 -869 -154 -1200 -376 -129 -86 -214 -159 -341
-288 -320 -329 -538 -752 -638 -1239 -93 -457 -93 -1020 0 -1464 111 -526 335
-949 682 -1288 305 -298 646 -476 1087 -567 391 -81 886 -78 1273 9 505 113
905 357 1217 745 303 376 480 820 552 1385 25 195 25 701 -1 895 -68 532 -225
944 -497 1305 -404 538 -955 825 -1689 880 -125 9 -350 11 -445 3z m410 -367
c210 -56 396 -219 515 -452 160 -312 239 -910 240 -1809 0 -981 -91 -1595
-287 -1931 -54 -93 -180 -223 -264 -272 -246 -144 -621 -135 -862 21 -286 184
-424 573 -487 1372 -20 249 -30 805 -20 1133 27 905 130 1375 366 1671 120
150 262 240 434 277 83 17 283 12 365 -10z"/>
</g>
</svg>
